# xmcd
#
# Track frame offsets: 
#        150
#        15970
#        19702
#        43882
#        46875
#        58882
#        67550
#        79700
#        82462
#        99565
#        107865
#        123835
#        126395
#        140420
#        141782
#        156655
#        158370
#        162127
#        173680
#
# Disc length: 2475 seconds
#
# Revision: 7
# Processed by: cddbd v1.5.2PL0 Copyright (c) Steve Scherf et al.
# Submitted via: ExactAudioCopy v0.99pb4
#
DISCID=f709a913
DTITLE=Various Artist - 'Til We Outnumber 'Em: Songs of Woody Guthrie
DYEAR=2000
DGENRE=Folk
TTITLE0=All Severance Hall Cast - Hard Travelin' Hootenanny
TTITLE1=Peter Glazer - Payback
TTITLE2=Ramblin' Jack Elliott - 1913 Massacre
TTITLE3=Arlo Guthrie - Regular Fires
TTITLE4=Billy Bragg - Against the Law
TTITLE5=Bruce Springsteen - Riding in My Car
TTITLE6=David Pirner - Pretty Boy Floyd
TTITLE7=Arlo Guthrie - Free in Every Moment
TTITLE8=Ani DiFranco - Do Re Mi
TTITLE9=Fred Hellerman - What a Song is
TTITLE10=Arlo Guthrie - Dust Storm Disaster
TTITLE11=Craig Werner - It Ain't About Bein' Perfect
TTITLE12=Bruce Springsteen - Plane Wreck at Los Gatos (Deportee)
TTITLE13=Country Joe McDonald - Does Music Change the World?
TTITLE14=Indigo Girls with Ani DiFranco - Ramblin' Round
TTITLE15=Arlo Guthrie - Change the Moment
TTITLE16=Tim Robbins - Born Naked
TTITLE17=Ramblin' Jack Elliott - Talking Dust Bowl
TTITLE18=Arlo Guthrie and All Severance Hall Cast - 'Til We Outnumber 'E
TTITLE18=m
EXTD=
EXTT0=
EXTT1=
EXTT2=
EXTT3=
EXTT4=
EXTT5=
EXTT6=
EXTT7=
EXTT8=
EXTT9=
EXTT10=
EXTT11=
EXTT12=
EXTT13=
EXTT14=
EXTT15=
EXTT16=
EXTT17=
EXTT18=
PLAYORDER=
